<?xml version="1.0" encoding="utf-8"?>
<!-- Generator: Adobe Illustrator 25.0.0, SVG Export Plug-In . SVG Version: 6.00 Build 0)  -->
<svg version="1.1" id="Layer_1" xmlns="http://www.w3.org/2000/svg" xmlns:xlink="http://www.w3.org/1999/xlink" x="0px" y="0px"
	 viewBox="0 0 759.8 740.6" style="enable-background:new 0 0 759.8 740.6;" xml:space="preserve">
<style type="text/css">
	.st0{fill:#7541C9;}
	.st1{fill:none;stroke:#A4A4A4;stroke-width:3;stroke-linecap:round;stroke-linejoin:round;}
	.st2{fill:#000202;}
	.st3{fill:#E49D75;}
	.st4{fill:#D38D6A;}
	.st5{fill:none;stroke:#E0E0E0;stroke-width:2;stroke-linecap:round;stroke-linejoin:round;}
	.st6{fill:#8F84BF;}
	.st7{fill:#91BCAC;}
	.st8{fill:#FFC78E;}
	.st9{fill:#FFBB59;}
	.st10{fill:#AA4737;}
	.st11{fill:#A4A4A4;}
	.st12{fill:#E0E0E0;}
	.st13{fill:#F2F2F2;}
	.st14{fill:#FFE4AD;}
	.st15{fill:#3E3947;}
	.st16{fill:#000505;}
	.st17{fill:none;stroke:#F4082A;stroke-width:6;stroke-linecap:round;stroke-linejoin:round;}
</style>
<g id="Layer_2_1_">
	<g id="vector">
		<path class="st0" d="M503.9,206.3c60.5,79.9,134.3,145.1,130.3,204.8c-4,59.5-85.8,113.3-176.4,162
			c-90.8,48.8-190.2,92.4-268,65.1s-134-126-150.3-225.6s7-200.4,65.3-279.7S255.9-4.8,326.1,13.5S443.4,126.2,503.9,206.3z"/>
		<line class="st1" x1="412.2" y1="406.4" x2="412.2" y2="656.5"/>
		<path class="st2" d="M514.1,144.2h7.3c6.6,0,12,5.4,12,12v20c0,6.6-5.4,12-12,12h-7.3c-6.6,0-12-5.4-12-12v-20
			C502.1,149.6,507.5,144.2,514.1,144.2z"/>
		<path class="st3" d="M397.1,679.1c-1.1,2.8-8.7,19.8-8.7,19.8l24.5,9.3l7.3-24.3L397.1,679.1z"/>
		<polygon class="st3" points="537.2,655.1 542.2,673.6 520.2,684.4 505.6,669.3 		"/>
		<path class="st4" d="M505.6,299.4c-2.5,2.9-23.3,27.8-24.8,29.8s-62.4,20.5-65.6,21.3s-14.8,5.9-18,5.9s-13.7-3.5-18-2.7
			s-18.1,8.8-16.8,12s150.2-7.5,150.2-7.5l16.2-50.5L505.6,299.4z"/>
		<line class="st5" x1="534.8" y1="532.5" x2="497" y2="727.3"/>
		<polygon class="st6" points="674.2,214.4 759.8,214.4 678.6,532.5 521.8,532.5 521.8,511.8 609.6,453.5 		"/>
		<path class="st7" d="M497,514.2c4.3,8.9,41,133.4,42,140.6c-4.7,4.9-24.9,15.8-33.6,16.5C490.7,659.8,449.7,563,449.7,563
			S463.7,482.7,497,514.2z"/>
		<path class="st7" d="M673.5,395.6c3.2,3.8,13.5,59.6,15,74c2.3,22.7-41.6,55.9-103.7,55.9c-20.5,0-88.3-4.6-107.8-11.9
			c-1,12.3-50.1,166.1-55.7,171.7c-9.1,2.4-22.7-2.6-26.1-6s23.5-215.9,31-229.6s160.7-24,160.7-24L673.5,395.6z"/>
		<path class="st8" d="M567.2,236.4c28.8,16.8-14.2,90.1-19.7,92c-8.7-1-38.9-18.6-44.5-31.6C501.8,288.7,542.6,222,567.2,236.4z"/>
		<path class="st9" d="M583.1,205.9c48.1,0,94.4,183.6,92.5,190.9c-3.9,15.1-82.7,42.6-95.3,30.8
			C548.3,397.7,489.4,205.9,583.1,205.9z"/>
		<line class="st5" x1="669.6" y1="532.5" x2="707.4" y2="727.3"/>
		<polygon points="414.7,708.9 402.2,740.6 334.4,710.4 341.1,696.8 390.6,698.3 		"/>
		<polygon points="542.6,671.3 559.2,701.1 493.1,734.6 486.8,720.8 519.2,683.3 		"/>
		<path class="st4" d="M571.7,185.7c1.1,6.1,8,24.4,11,27.8s-13.2,23-31.1,19.4c-0.5-6.2-2.7-23.6-5.5-26.5S571.7,185.7,571.7,185.7
			z"/>
		
			<ellipse transform="matrix(0.9507 -0.3102 0.3102 0.9507 -22.4666 175.3947)" class="st3" cx="540.2" cy="158.3" rx="37.2" ry="50.5"/>
		<path class="st10" d="M510.6,89.6c19.9,0,71.1,35.4,71.1,71c0,19.1-3.4,24-4.7,24s-13.6-9.6-13.6-16.5s-2.4-17.1-4.8-17.1
			c-4,0-4.6,4.4-14.7,4.4c-3.8,0-11.1-4.6-11.1-9.9c-8.2,0.1-8.2,2.8-19.4,2.8c-12.7,0-43.9-6.4-43.9-16.3c0-6.7,8.7-11.3,17.3-9.7
			c-5.8-3.1-11-9.5-11-13.8c0-5.9,7.5-10.1,13.3-10.1c6.9,0,12.8,2.9,15.8,5.7C502.7,100.4,505,89.6,510.6,89.6z"/>
		<circle class="st3" cx="557" cy="161.1" r="10.3"/>
		<rect y="391.9" class="st11" width="518.6" height="14.5"/>
		<polygon class="st12" points="474,368.3 259.3,368.3 258.8,368.3 44.1,368.3 0,391.8 258.8,391.8 259.3,391.8 518.1,391.8 		"/>
		<line class="st1" x1="65.3" y1="406.4" x2="65.3" y2="711.4"/>
		<line class="st1" x1="106.4" y1="406.4" x2="106.4" y2="656.5"/>
		<line class="st1" x1="453.3" y1="406.4" x2="453.3" y2="711.4"/>
		<rect x="305.9" y="369.9" class="st11" width="91.9" height="6.3"/>
		<rect x="190.8" y="362.1" class="st11" width="17.6" height="21"/>
		<ellipse class="st13" cx="374" cy="379.4" rx="20.6" ry="9.6"/>
		<path class="st3" d="M520.3,309.5c-3,3.3-21.4,29.7-23.3,32.5c-42,4.9-97.5,18.4-99.5,18.4s-25.4-7.5-28.5-6.9s-9.5,11.8-9.3,14.1
			s18.6,13.4,39.8,13.1c4-0.3,5.3-2.5,9.5-2.5s99,7.3,115.5-1.3c9-4.7,34.1-40.1,34.1-42.7S520.3,309.5,520.3,309.5z"/>
		<path class="st14" d="M580.1,244.9c28.8,16.8-14.2,90.1-19.7,92c-8.7-1-38.9-18.6-44.5-31.6C514.7,297.3,555.5,230.6,580.1,244.9z
			"/>
		<rect x="175.9" y="102.1" class="st12" width="8.4" height="271.4"/>
		<polygon class="st15" points="184.3,102.1 184.3,237.8 184.3,373.5 224.1,358.9 224.1,237.8 224.1,116.7 		"/>
		<path class="st16" d="M552.6,144.2h7.3c6.6,0,12,5.4,12,12v20c0,6.6-5.4,12-12,12h-7.3c-6.6,0-12-5.4-12-12v-20
			C540.6,149.6,546,144.2,552.6,144.2z"/>
		<path class="st17" d="M557,149.8c0-5.6,1.9-38.2-16.4-47.9"/>
	</g>
</g>
</svg>
