<?xml version="1.0" encoding="utf-8"?>
<!-- Generator: Adobe Illustrator 25.0.0, SVG Export Plug-In . SVG Version: 6.00 Build 0)  -->
<svg version="1.1" id="Layer_1" xmlns="http://www.w3.org/2000/svg" xmlns:xlink="http://www.w3.org/1999/xlink" x="0px" y="0px"
	 viewBox="0 0 1720 1280" style="enable-background:new 0 0 1720 1280;" xml:space="preserve">
<style type="text/css">
	.st0{fill:#C2D8F0;}
	.st1{fill:#EDF3FB;}
	.st2{fill:#C9DBF1;}
	.st3{fill:#A3C0E5;}
	.st4{fill:#D4E3F5;}
	.st5{fill:#7A97CE;}
	.st6{fill:#6B8FC9;}
	.st7{fill:#231F20;}
	.st8{fill:#FAB17E;}
	.st9{fill:#EB7E29;}
	.st10{fill:#2F3C65;}
	.st11{fill:#F8974A;}
	.st12{fill:#FFFFFF;}
	.st13{fill:#1C488A;}
	.st14{fill:#B6D4EF;}
	.st15{fill:#95B8E1;}
	.st16{fill:#F9DDBF;}
	.st17{fill:none;stroke:#231F20;stroke-width:0.5;stroke-miterlimit:10;}
	.st18{fill:#181516;}
	.st19{fill:#E4915A;}
	.st20{fill:#243A62;}
	.st21{fill:#24417A;}
	.st22{fill:#EDF2FA;}
	.st23{fill:#E2E2E2;}
	.st24{fill:#2A498D;}
	.st25{fill:#CFDFF2;}
	.st26{fill:#E0E9F7;}
</style>
<g id="Object_1">
	<g id="Element_1">
		<g id="Gear">
			<path class="st0" d="M268,571.1l-12.3,6.2c-3.6-8-8.7-14.3-14.6-18.9l4.8-14.1c0.3-1,0-2.2-0.8-2.6l-8.7-4.4
				c-0.8-0.4-1.8,0-2.1,1l-4.6,13.7c-7.1-2.4-14.8-2.6-22.2-0.4l-4.6-13.3c-0.3-1-1.3-1.4-2.1-1l-8.7,4.4c-0.8,0.4-1.2,1.6-0.8,2.6
				l4.6,13.3c-6.6,4.8-11.8,11.5-15.5,19.3l-11.3-5.6c-0.8-0.4-1.8,0-2.1,1l-3.6,10.5c-0.3,1,0,2.2,0.8,2.6l11.7,5.8
				c-1.5,8.4-1.3,17.3,0.8,25.8l-12.3,6.2c-0.8,0.4-1.2,1.6-0.8,2.6l3.6,10.5c0.3,1,1.3,1.4,2.1,1l12.8-6.6c3.9,7.2,9,12.7,15,16.7
				l-5.6,16.5c-0.3,1,0,2.2,0.8,2.6l8.7,4.4c0.8,0.4,1.8,0,2.1-1l5.8-16.9c6.4,1.6,13.2,1.6,19.7-0.4l5.9,17.3c0.3,1,1.3,1.4,2.1,1
				l8.7-4.4c0.8-0.4,1.2-1.6,0.8-2.6l-5.9-17.3c5.8-4.2,10.5-9.9,14.1-16.7l14,7c0.8,0.4,1.8,0,2.1-1l3.6-10.5c0.3-1,0-2.2-0.8-2.6
				l-13.6-6.8c1.8-8,2.1-16.3,0.7-24.7l12.8-6.6c0.8-0.4,1.2-1.6,0.8-2.6l-3.6-10.5C269.7,571.1,268.8,570.8,268,571.1z
				 M223.8,619.7c-7.9,4-16.8-0.6-20.1-9.9c-3.3-9.5,0.5-20.3,8.2-24.3c7.9-4,16.8,0.6,20.1,9.9
				C235.3,604.9,231.5,615.9,223.8,619.7z"/>
			<path class="st0" d="M403.8,537.5l-24.7,3c-2.8-16.3-8.9-31-17.4-43.1l14.8-21.9c1-1.6,0.8-3.8-0.3-5L362.7,457
				c-1.3-1.2-3.1-1-4.1,0.4l-14.3,21.1c-11.5-8.9-24.8-14.3-39.1-15.3l-2.1-26.4c-0.2-2-1.6-3.4-3.3-3.2l-17.4,2
				c-1.6,0.2-2.8,2-2.6,4l2.1,26.4c-13.8,4.2-26.1,12.5-36,24.1l-17.4-17.3c-1.3-1.2-3.1-1-4.1,0.4l-11.2,16.3c-1,1.6-0.8,3.8,0.3,5
				l18.1,17.9c-6.4,13.9-10.2,29.6-10.2,46.5l-24.7,3c-1.6,0.2-2.8,2-2.6,4l1.6,21.1c0.2,2,1.6,3.4,3.3,3.2l25.8-3
				c3.6,15.1,10.4,28.6,18.9,39.6l-17.4,25.4c-1,1.6-0.8,3.8,0.3,5l13.5,13.5c1.3,1.2,3.1,1,4.1-0.4l17.8-26.2
				c10.5,7.2,22.4,11.5,35,12.3l2.8,34.4c0.2,2,1.6,3.4,3.3,3.2l17.4-2c1.6-0.2,2.8-2,2.6-4l-2.8-34.4c12.2-3.6,23.2-10.7,32.4-20.1
				l21.7,21.5c1.3,1.2,3.1,1,4.1-0.4l11.2-16.3c1-1.6,0.8-3.8-0.3-5l-21-21.1c6.7-12.7,11.2-27.4,12.3-43.1l25.8-3
				c1.6-0.2,2.8-2,2.6-4l-1.6-21.1C406.9,538.7,405.5,537.3,403.8,537.5z M303.7,594.4c-15.6,1.8-29.4-11.9-30.9-30.8
				s9.9-35.6,25.5-37.4c15.6-1.8,29.4,11.9,30.9,30.8C330.7,575.7,319.3,592.6,303.7,594.4z"/>
		</g>
		<g>
			<g>
				<polygon class="st0" points="1049.9,1133.8 980.7,1071.4 841.6,1124.4 839.6,1116.9 982,1062.4 1049.1,1123.3 1389.6,684.3 
					1479.3,854.3 1570.4,437.7 1610.2,806.5 1667.2,689 1720,777.9 1714.7,782.5 1667.7,703.6 1606.1,830.6 1568.1,478.9 
					1481.9,873.7 1388.6,697.2 				"/>
			</g>
			<g>
				<ellipse class="st0" cx="1569.2" cy="458.2" rx="19.1" ry="23.1"/>
			</g>
			<g>
				<ellipse class="st0" cx="1389.1" cy="690.8" rx="19.1" ry="23.1"/>
			</g>
			<g>
				<ellipse class="st0" cx="1049.6" cy="1126" rx="19.1" ry="23.1"/>
			</g>
			<g>
				<ellipse class="st0" cx="978.1" cy="1066.8" rx="19.1" ry="23.1"/>
			</g>
			<g>
				<ellipse class="st0" cx="1667.4" cy="696.2" rx="19.1" ry="23.1"/>
			</g>
		</g>
		<g>
			<rect x="34.6" y="790.6" class="st0" width="33.2" height="356.3"/>
			<rect x="89.5" y="932.6" class="st0" width="33.2" height="214.3"/>
			<rect x="144.4" y="843.9" class="st0" width="33.2" height="302.8"/>
			<rect x="199.3" y="982.9" class="st0" width="33.2" height="164"/>
			<rect x="254.2" y="922.5" class="st0" width="33.2" height="224.5"/>
			<rect x="309.1" y="1064.8" class="st0" width="33.2" height="81.9"/>
			<rect x="364" y="878.1" class="st0" width="33.2" height="268.6"/>
		</g>
		<g>
			<g>
				<path class="st0" d="M1120.9,829.6H612.3c-31.2,0-56.6-30.6-56.6-68.4v-332c0-37.8,25.3-68.4,56.6-68.4h508.7
					c31.2,0,56.6,30.6,56.6,68.4v332C1177.3,799.2,1152.2,829.6,1120.9,829.6z"/>
				<path class="st1" d="M1097.6,812.1H635.5c-31.2,0-56.6-30.6-56.6-68.4V446.9c0-37.8,25.3-68.4,56.6-68.4h462.1
					c31.2,0,56.6,30.6,56.6,68.4v297C1154.1,781.5,1128.8,812.1,1097.6,812.1z"/>
			</g>
			<g>
				<g>
					<g>
						<rect x="657.8" y="459.6" class="st0" width="16.8" height="178.9"/>
						<rect x="685.3" y="531" class="st0" width="16.8" height="107.6"/>
						<rect x="712.9" y="486.5" class="st0" width="16.8" height="152.1"/>
						<rect x="740.5" y="556.2" class="st0" width="16.8" height="82.3"/>
						<rect x="768" y="525.8" class="st0" width="16.8" height="112.7"/>
						<rect x="795.6" y="597.4" class="st0" width="16.8" height="41.2"/>
						<rect x="823.2" y="503.6" class="st0" width="16.8" height="134.8"/>
					</g>
					<g>
						<path class="st0" d="M1066.3,588c-13.3,49.9-57.5,77.3-98.8,61.2c-41.3-16.1-64-69.6-50.6-119.5
							c13.3-49.9,57.5-77.3,98.8-61.2l-26,97.4l73.2-45.3l0.3-0.4C1071,540.9,1072.4,564.8,1066.3,588z"/>
						<path class="st0" d="M1075.4,503.4l-0.3,0.4l-73.2,45.3l26-97.4C1049.9,460.2,1066.7,479.5,1075.4,503.4z"/>
					</g>
				</g>
				<g>
					<path class="st0" d="M935.8,688.4h-278c-2.8,0-5.3-2.8-5.3-6.4c0-3.4,2.3-6.4,5.3-6.4h278c2.8,0,5.3,2.8,5.3,6.4
						C941.1,685.7,938.6,688.4,935.8,688.4z"/>
				</g>
				<g>
					<path class="st0" d="M1070.1,714.5H656.5c-1.8,0-3.3-1.8-3.3-4s1.5-4,3.3-4H1070c1.8,0,3.3,1.8,3.3,4
						S1071.9,714.5,1070.1,714.5z"/>
				</g>
				<g>
					<path class="st0" d="M1070.1,742.9H656.5c-1.8,0-3.3-1.8-3.3-4s1.5-4,3.3-4H1070c1.8,0,3.3,1.8,3.3,4
						S1071.9,742.9,1070.1,742.9z"/>
				</g>
			</g>
		</g>
		<g>
			<g>
				<g>
					<path class="st2" d="M1564,998.8c0,0-29.4-19.1,3.5-41.4c0,0-2.8,22.9,0,24.9c2.8,2,3.6-26.6,3.5-27.2
						c0-0.6,24.3-11.7,26.5-10.7c2.1,1-11.8,25.8-7.9,23.7c3.9-2.4,13-26.2,13-26.2s19.1-3,23,4.4c3.9,7.4,7.1,21.7,0,27.8
						c-7.1,6.2-23.5,0.2-22,4c1.5,4,17.4,6.8,20.1,5c0,0-10,27.2-22.7,20.7c-11.8-6.2-20.1-6.6-20.5-5.4c-0.5,1.2,21,5.2,22.2,14.3
						c1.2,9.1-36,4-35.7-4.4C1567.1,999.6,1564,998.8,1564,998.8z"/>
					<g>
						<path class="st2" d="M1563.8,1057.2c-2.3-3.8-9.9-17.5-7.1-35.2c2-11.9,7.6-19.9,10.9-23.7l2,2.4c-3,3.4-8.2,10.7-10,21.7
							c-2.6,16.3,4.4,29,6.6,32.6L1563.8,1057.2z"/>
					</g>
				</g>
				<g>
					<path class="st2" d="M1545.9,996.8c0,0,21.4-13.9-2.5-29.8c0,0,2,16.5,0,17.9c-2,1.4-2.6-19.3-2.6-19.7s-17.6-8.5-19.2-7.8
						c-1.6,0.8,8.7,15.5,5.8,17.1c-3,1.6-12.3-18.1-12.3-18.1s-10.9-3.2-13.6,2.2c-2.8,5.4-5.1,15.7,0,20.1c5.1,4.4,16.9,0,15.9,3
						c-1,2.8-12.7,4.8-14.5,3.6c0,0,7.9,21.3,16.4,14.9c8.5-6.4,16.8-5.8,16.8-4.8s-17.1,4.6-17.9,11.3c-0.8,6.8,26.1,2.8,25.8-3.2
						C1543.6,997.6,1545.9,996.8,1545.9,996.8z"/>
					<g>
						<path class="st2" d="M1545.9,1039.4c1.6-2.8,7.2-12.7,5.1-25.4c-1.3-8.7-5.6-14.5-7.9-17.1l-1.3,1.8c2.1,2.4,6.1,7.8,7.2,15.7
							c1.8,11.9-3.1,21.1-4.8,23.5L1545.9,1039.4z"/>
					</g>
				</g>
				<g>
					<path class="st3" d="M1561.8,956.8c0,0-39.6-25.8,4.6-55.5c0,0-3.6,30.6,0,33.2c3.6,2.8,4.8-35.8,4.8-36.6
						c0-0.8,32.6-15.9,35.5-14.5c3,1.4-16.1,28.8-10.7,31.6s23-33.6,23-33.6s20.1-5.8,25.3,4.2c5.3,9.9,9.5,29,0,37.4
						s-31.4,0.2-29.6,5.4c1.8,5.2,23.5,8.9,26.8,6.6c0,0-14.8,39.4-30.6,27.6c-15.8-11.7-32.2-9.7-30.9-8.9
						c1.3,1,34.5,10.1,36.2,22.5c1.6,12.3-51.1,3.8-50.6-7.4C1566.1,958.2,1561.8,956.8,1561.8,956.8z"/>
					<g>
						<path class="st3" d="M1561.5,1035.6c-3.1-5.2-13.3-23.5-9.5-47.3c2.5-16.1,10.2-26.8,14.6-31.6l2.6,3.4
							c-3.9,4.6-11.2,14.5-13.5,29.2c-3.5,21.9,5.9,39,8.9,43.7L1561.5,1035.6z"/>
					</g>
				</g>
			</g>
			<path class="st4" d="M1556.9,1074.1c26.1,0,47.2-25.6,47.2-57.1h-94.4C1509.7,1048.5,1530.9,1074.1,1556.9,1074.1z"/>
			<path class="st3" d="M1597.2,1079.5h-80.6c-1.2,0-2-1-2-2.4v-0.6c0-1.4,0.8-2.4,2-2.4h80.6c1.2,0,2,1,2,2.4v0.6
				C1599.2,1078.5,1598.3,1079.5,1597.2,1079.5z"/>
		</g>
	</g>
	<g id="Character">
		<g id="Double_Character">
			<g>
				<path class="st5" d="M1126,757.4c0,0,1.8-8.2,18.7-3s56.2,27.4,69.7,22.3c13.5-5.2-32.2,81.3-32.2,81.3l-56.2,13.3l-42.6-29.4
					l9.9-54.3L1126,757.4z"/>
				<path class="st5" d="M926.3,783.9c0,0,2-25.6,9.7-26.2c7.7-0.6,67.9,16.9,74.3,23.1c6.4,6.2-1.3,47.1-5.6,51.7
					c-4.3,4.6-36.8,35-36.8,35l-55.4-20.5l-0.8-24.3l5.3-25.1L926.3,783.9z"/>
				<polygon class="st5" points="1283.2,1133 784.2,1002 787,902.4 805.3,887.3 889,867.2 1043.5,891.4 1270.9,940.3 1314.6,940.3 
					1314.6,1079.3 1305.4,1105.8 1298.3,1115.9 				"/>
				<polygon class="st5" points="778.6,808.3 868.1,800 876.3,816.5 878.4,844.1 838.7,864.4 816.6,857.2 780.6,860 778,828.2 				
					"/>
				<path class="st5" d="M802.2,838.2c0,0-42.4,17.9-42.9,24.1c-0.5,6.2,1.8,25.1,41.3,37l13.3-52.5L802.2,838.2z"/>
				<path class="st5" d="M784.2,1002l-10.9-2l-0.8-185.1c0-3.8,2.5-6.8,5.6-6.8h3c3,0,5.4,3,5.6,6.6l0.5,87.3L784.2,1002z"/>
				<path class="st5" d="M1366.5,780.3c0,0,62.3,3.2,69.7-7.8c7.4-10.9,12.2,24.9,11.2,35.8c-1,10.9-6.7,46.5-14,51.7
					c-7.2,5.2-72.7,7.2-72.7,7.2l-1.8-33L1366.5,780.3z"/>
				<path class="st5" d="M1330.7,736c0,0,19.1-2,23.3,2.2c4.3,4.2,36.3,39.6,34.5,53.7c-1.8,14.1-18.6,37.2-18.6,37.2l-18.2-1.6
					l-13-16.9l-6.6-41.8L1330.7,736z"/>
			</g>
			<path class="st6" d="M926.6,933.4c0,0-15.8,55.1-16.9,77.3c-1.2,22.3-16.4-47.1-16.4-47.1l4.3-38l5.8-25.6l19.2,3.8L926.6,933.4z
				"/>
			<path class="st6" d="M1132.9,753.3c0,0,9,17.7-4.4,46.5c-13.5,28.8-8.7-12.7-8.7-12.7l2.1-16.7L1132.9,753.3z"/>
			<path class="st6" d="M990.9,783.7c0,0,23.8,3.8,12.7,21.3l16.1-6.8l-0.8-14.5l-12.3-6.6L990.9,783.7z"/>
			<path class="st6" d="M1356.7,750.7c0,0,38.8,29.4,27.9,97.2s-7.7,6.4-7.7,6.4l-14.1-9.9v-39L1356.7,750.7z"/>
			<path class="st6" d="M852.5,903.4c0,0-2.5,90.3-7.4,98.6c-4.9,8.4-14.1-116.9-14.1-116.9l5.8-5.4L852.5,903.4z"/>
			<g>
				<path class="st7" d="M759.2,865.2c0,0,21.7,11.9,30.4,9.9C789.8,875.1,769.3,874.5,759.2,865.2z"/>
				<path class="st7" d="M779.8,808.3c0,0,4.6,3.4,4.9,8.9c0.3,5.6,0.7,20.9,0.7,20.9S786.4,811.9,779.8,808.3z"/>
				<path class="st7" d="M794.1,897c0,0-16.3,10.9-16.8,15.1s-2.5,30.8-0.7,34.2c0,0,0.2-32.6,2.1-34.2
					C780.6,910.3,791.1,899.4,794.1,897z"/>
				<path class="st7" d="M779.8,952.7c0,0,8.5,7.2,9.5,7.2c1,0,198.8,43.9,201.9,40"/>
				<path class="st7" d="M929.2,801.4c0,0,58.9,29.8,60.7,29.6C989.9,831.2,943.9,817.7,929.2,801.4z"/>
				<path class="st7" d="M1123.7,787.7c0,0,45.7,15.3,50.3,13.5C1174,801.2,1135.7,797.4,1123.7,787.7z"/>
				<path class="st7" d="M999.6,1000.4c0,0,281.8,67.8,293.1,57.7"/>
			</g>
			<path class="st6" d="M1196.4,1007.1c0,0,17.4-27.2,21.9-40.6c4.4-13.1-5.1-19.3-5.1-19.3l-13-1.8l-11.8,38L1196.4,1007.1z"/>
			<path class="st6" d="M1085.4,992.8c0,0,22.4-34,47.5-39.2c25.2-5.2-37.8-16.7-37.8-16.7l-21.9,11.1L1085.4,992.8z"/>
			<path class="st8" d="M1011.3,685.5c0,0,11-21.3,21.2-22.7c10.2-1.4,5.1,36.6,5.1,36.6l-11.2,3.4l-13.2-12.1L1011.3,685.5z"/>
			<path class="st9" d="M1032.6,662.8c0,0-9.7,18.5-4.1,39.2s9-11.7,9-11.7L1032.6,662.8z"/>
			<path class="st8" d="M1102,735.8l-45,18.7c0,0-4.1-13.1-3.3-18.1c0.3-1.8-1.5-4.8-3.8-7.8c-4.1-5.6-10.2-11.3-10.2-11.3l1-1.8
				l3.5-6.2l19.9-12.7c0,0,27,3.8,27.5,11.5c0.5,7.8,3.9,22.1,3.9,22.1L1102,735.8z"/>
			<path class="st9" d="M1059.3,709.3c0,0-3.9,14.5-9.5,19.1c-4.1-5.6-10.2-11.3-10.2-11.3c0-1,0-1.6,0-1.6l1-0.4l12.2-4.4
				L1059.3,709.3z"/>
			<path class="st8" d="M1037.2,649.5c-0.2,0.2-0.3,0.2-0.3,0.4c-1.5,1.6-2,5.2-2.8,7.4c-1.6,5.6-3.1,11.3-3.9,17.3
				c-1.8,11.7-2.1,23.9-0.8,35.8c0.2,1,0.3,2.2,0.5,3.2c0.2,0.8,0.3,1.8,0.7,2.6c0.5,0.8,1.3,1.4,2.1,1.8c5.6,2.6,12,1.6,17.4-1.2
				s10.2-7.8,14.3-12.9c5.9-7.4,11.2-15.5,14.6-24.9c0.7-2,1.5-4.2,0.8-6.4c-0.3-1.4-1.3-2.6-2.1-3.8c-3.8-4.4-8.2-7.8-12.8-10.9
				c-7.1-4.8-14.8-8.9-22.9-9.3C1040.7,648.3,1038.6,648.5,1037.2,649.5z"/>
			<path class="st9" d="M1058.3,699.4c0,0,7.7-2.4,9.4-5.6c1.6-3.2-0.5-8.4-0.5-8.4h-3L1058.3,699.4z"/>
			<path class="st10" d="M1037.6,645.1c0,0-3.5,11.1,3,10.1c6.4-1,3.9,9.9,6.1,12.5c2.1,2.6-2.1,13.3,0,16.1c2.1,2.8,8.4-2,8.4-2
				l10.5,3c0,0-1.5,12.7,3.6,17.9c5.1,5.2,19.9,17.3,23,14.1c3.1-3.2,32.2-67.6,0-88.5c-32.2-20.9-65.9,5.2-63.6,9.3
				C1030.7,641.7,1037.6,645.1,1037.6,645.1z"/>
			<path class="st8" d="M1057,683.9c0,0,1-5,3.5-4.8c2.5,0.2,7.4,5.2,3.6,12.5s-6.9,9.7-8.9,6C1053.5,693.8,1057,683.9,1057,683.9z"
				/>
			<path class="st8" d="M864,835.6c0,0-40.1-29.8-58.2-10.3c-17.9,19.5-2.1,143.1,5.6,162.8c7.7,19.7,2.6,69.4,8.4,72.6
				c5.8,3.2,15.8,0,16.9-1.2c1-1.2,8.7-40.2,8.2-50.5c-0.5-10.3,4.8-101.2-3.6-118.3c0,0,5.8,14.1,22.7,16.9
				C880.9,910.3,884,856,884,856L864,835.6z"/>
			<path class="st9" d="M862.8,834.8c0,0-31.6,42.3-3.3,72C887.8,936.2,862.8,834.8,862.8,834.8z"/>
			<path class="st11" d="M864.6,830.4c0,0-17.6-76.7-16.1-78.7c1.2-1.8,50.1-3.2,65.3-3.6c2.6,0,4.8,2,5.4,5l21.4,95.4l-0.8,7.6
				l-26.8-2.8l-26.1-11.5L864.6,830.4z"/>
			<g>
				<path class="st12" d="M913.6,1083.1c0,0,2.3,4,1.8,6.8c-0.5,2.8-8.1,12.9-8.1,12.9h-26.5l-10-6.8l1.3-3l0.3-1.8
					c0,0,1.2-0.8,3-2.4c2-1.4,17.8-3,17.8-3l7.1-2.8L913.6,1083.1L913.6,1083.1z"/>
				<path class="st8" d="M950.6,926l-26,4.8c0,0,0,0-0.2,0c-0.8-0.4-4.6-1.8-7.2-4c-2.5-2-6.2-11.7-7.4-14.7c0.3,1.2,0.7,3,1,5.4
					c3,24.7-1.5,102.4-2.5,117.7c-1,17.3,5.3,47.9,5.3,47.9c-4.8,16.7-38,5.8-38,5.8c0.3,0,0.5-0.2,0.8-0.4
					c16.6-10.9-20.1-199.2-20.1-199.2c-9.2-18.3,0-40.6,8.4-58.8c8.4-18.3,74.6,17.7,74.6,17.7L950.6,926z"/>
				<path class="st12" d="M925.5,1108.7c0,0,5.4,8,4.3,11.9c-1.2,4-58.5,25.8-92.4,8.9c0,0-1.3-6.2,0-9.1s87.6-11.7,87.6-11.7H925.5
					z"/>
				<path class="st7" d="M914.8,1085.5c0,0,2.6,4-1.5,7s-27,8.2-40.8-1.2c0,0-42.1,26.8-34.4,30.6c7.7,3.8,77.4,14.1,87.1-13.1
					C925.5,1108.7,924.8,1089.3,914.8,1085.5z"/>
			</g>
			<path class="st9" d="M924.3,930.8c-0.8-0.4-4.6-1.8-7.2-4c-2.5-2-6.2-11.7-7.4-14.7c0.3,1.2,0.7,3,1,5.4l-1-5.4l0,0l0,0
				c0.8,1.2,10,16.3,15.5,17.3C927.8,930,926.4,930.4,924.3,930.8z"/>
			<path class="st13" d="M939.3,848.1c0,0,9,94.8-21.2,79.7c0,0,37.6,30.6,108.2,22.3c70.7-8.4,52.4-64.2,52.4-64.2l-46.5-12.7
				l-82.7-24.7l1.3,2.4C950.9,851.1,940.3,851.5,939.3,848.1z"/>
			<path class="st9" d="M1053.5,736.4c0,0,11.7,4.6,5.8,11.5c-5.9,7-7.2,1.2-7.2,1.2l0.5-5.2L1053.5,736.4z"/>
			<path class="st14" d="M1095.3,730c0,0,23-0.6,35.7,19.7c10.9,17.1-26,108.4-37.2,135.2c-2,4.6-5.8,7.6-9.9,8l-28.9,2.6
				c0,0-4.1-27.4,0-30.6l-37.3,2l-45.9-14.3l2.6-4.4c0,0,31.6-43.3,35.8-55.7s-45-3.4-46.2-23.5c-1-20.1,10.4-21.7,10.4-21.7
				l16.9,8.9l10-6.2c0,0,44.7-18.7,52.1-13.5c7.4,5.2,3.3,11.9,3.3,11.9s10.9-0.8,15.1-8.2C1076.2,733,1095.3,730,1095.3,730z"/>
			<g>
				<path class="st8" d="M1000.6,750.3c0,0,20.4-46.3,25.8-47.7c5.4-1.2-10.2-16.1-10.2-16.1l-4.9-1.2c0,0-31.6,49.9-36.2,50.9
					l0.2,7.4l16.6,8.2L1000.6,750.3z"/>
				<path class="st15" d="M975.1,736.4c0,0-0.2,0.2-0.3,0.4c-1.6,2-8.2,10.3-7.6,12.3c0.8,2.2,9.2,12.3,12.3,12.9
					c3.1,0.6,11.8-6.2,11.8-6.2l9.4-5.6C1000.6,750.3,978.4,751.7,975.1,736.4z"/>
			</g>
			<path class="st8" d="M963.9,843.7c0,0-22-3.4-22.9-1.2c-0.8,2.2,0.2,3.8,0.8,3.8c0.7,0.2,18.7,1.2,23.5,2
				S963.9,843.7,963.9,843.7z"/>
			<path class="st8" d="M1043.5,864c0,0-51.3-6.6-55.6-9.5c-4.3-3-24-10.5-24-10.5s3.8,14.7,9.4,18.7c5.8,4,54.9,29.6,60.7,30.4
				c5.8,0.8,12,6,12,6h3.5l-1-32L1043.5,864z"/>
			<path class="st15" d="M1043.5,862.6c0,0,8.2,33.8,1.3,37.8c0,0,10,8.4,12.7,4.2c2.6-4.2,9.7-38.4,5.4-41.9
				C1058.6,859,1043.5,862.6,1043.5,862.6z"/>
			<path class="st8" d="M960.6,845.3c0,0-15.6,0-16.1,2.2s4.6,2.6,6.7,3.2c2.1,0.6,15.8,0.8,16.4,0S960.6,845.3,960.6,845.3z"/>
			<path class="st8" d="M953.1,848.5c0,0-4.1,1.8-1.3,3.2s20.5,10.3,22.2,9.1c1.6-1.2-0.7-7-1.8-7.6
				C971,853.1,955.5,847.7,953.1,848.5z"/>
			<polygon class="st8" points="1184.6,826.6 1155.6,873.9 1189.8,884.9 1219.4,844.9 1221.2,826.6 1196.9,824 			"/>
			<path class="st9" d="M1202.6,837.8c0,0,2.5,16.9-2.3,24.7c0,0,6.6-0.4,6.9-0.4c0.3,0,8.4-17.5,8.4-17.5l1.3-8.2l-13-2.2
				L1202.6,837.8z"/>
			<path class="st11" d="M1157.8,954.5c0,0-57.7-6-64.8,13.1c-7.1,19.1-33.9,124.1-33.9,124.1l-45.4-25.1c0,0,21.5-159.6,40.1-163.4
				c18.7-4,69.9-11.5,69.9-11.5l46.9,1.8l17.9,11.3l-11.2,25.6L1157.8,954.5z"/>
			<path class="st9" d="M1170.4,902.8c0,0-14.5,9.3-14.8,12.9s-3,41.6-3,41.6l21.4-8.5l8.2-31l-6.1-18.3L1170.4,902.8z"/>
			<path class="st11" d="M1186,899c0,0-22.2,11.9-24.3,22.9c-2.1,10.9-38.8,145.7-38,159.1c0.8,13.5,44.9,19.9,44.9,19.9
				s37.5-119.9,35.3-128.4c-2.1-8.5,45-31.8,45-31.8l11.3-37.4l-7.4-15.9l-31.6-2.4L1186,899z"/>
			<path class="st16" d="M1320.7,729c0,0,75.1,18.1,55.6,118.9c0,0-18.2-41-48.5-10.1l1.6,45.5l-148.9,22.3c0,0,27.5-63.4,32.7-65.6
				c0,0-31.2-5.2-30.9-12.7c0.3-7.8,34-75.9,43.6-80.9c9.5-4.8,49.6-15.7,49.6-15.7L1320.7,729z"/>
			<path class="st8" d="M1320.7,729c-17.9,17.5-49.5,16.7-49.5,13.7c0-1.2-0.5-4-1.3-6.8c-1-4.2-2.1-8.4-2.1-8.4l4.3-9.1l2-4.2
				l23-35.4l3.9,2.8l6.6,19.7c0,0,12,13.5,10.7,15.9C1317.2,719.5,1320.7,729,1320.7,729z"/>
			<path class="st9" d="M1270,736c-1-4.2-2.1-8.4-2.1-8.4l4.3-9.1c6.6-8.7,18.6-22.7,19.4-10.9C1293.1,724,1270,736,1270,736z"/>
			<path class="st8" d="M1278.8,725.8c-6.7,5-15.1,6.2-22.5,3.2c-4.8-1.8-9-4.6-8.7-8.2c0.7-8-4.6-56.1,13.8-78.1
				c5.9-7.2,12.8-8.2,19.4-6.4c15.8,4.6,24.5,25.2,19.1,43.7l-9.2,31.8C1290.4,711.9,1289.1,718.5,1278.8,725.8z"/>
			<path class="st10" d="M1259,645.5c0,0-9.5-8.4-6.1-14.5c3.5-6.2,32.9-28.6,71.7,4.4c38.8,33.2-4.1,88.9-4.1,88.9
				s-19.4-12.1-17.8-23.1c1.6-10.9-5.6-25.6-12.3-23.1c-6.7,2.6-9.5,11.7-12.5,8c-3-3.8-3.5-38.8,3.1-42.5
				C1281.1,643.7,1263.8,648.3,1259,645.5z"/>
			<path class="st8" d="M1371.6,889.8l-117.4,9.3c0,0-1.5-1.6-3.8-3.8c-6.9-7.4-20.9-22.3-16.8-23.1c5.3-0.8,12.3,4.8,17.9,4.4
				s69.4-9.3,74.3-11.1c1.2-0.4,1.8-2,2.3-4.4l0,0V861c0-0.2,0-0.4,0.2-0.6c0.2-1,0.2-2,0.3-3c0.5-8.2-0.7-19.3-0.7-19.3
				c3.9-4.2,8.1-7,11.8-8.7c15.9-7.6,30.1,2.4,38.1,10.5C1378.4,854.9,1371.6,889.8,1371.6,889.8z"/>
			<path class="st9" d="M1339.7,829c-6.4,5.6-10.7,26.4-11.5,31c0.2-1,0.2-2,0.3-3c0.5-8.2-0.7-19.3-0.7-19.3
				C1332,833.6,1336,830.8,1339.7,829z"/>
			<polygon class="st8" points="1236,875.1 1231.6,881.9 1231.6,889.4 1247.5,885.9 1243.4,878.5 			"/>
			<path class="st8" d="M1123.7,1095l-14,45.5l31.6,16.1c0,0,16.4-47.3,15-51.5C1154.8,1101.2,1123.7,1095,1123.7,1095z"/>
			<g>
				<path class="st12" d="M1148.4,1172c0,0,2.1,10.1-0.3,13.1c-2.5,3-62.1-6.6-86.8-39.4c0,0,1-6.2,3.1-8.2
					c2.1-2,83.4,34.2,83.4,34.2L1148.4,1172z"/>
				<path class="st7" d="M1145.1,1145.1c0,0-0.7,5-5.4,5.6s-18.1-3.6-27.3-19.3c0,0-53.3,0.2-47.5,7.6c5.6,7.4,65.3,52.5,83.5,32.8
					C1148.4,1172,1152.8,1153.9,1145.1,1145.1z"/>
			</g>
			<path class="st9" d="M1292.6,701c0,0,7.1,4.6,10-14.9h-4.9L1292.6,701z"/>
			<path class="st8" d="M1291.2,681.5c1.2-2.4,2.5-4.4,4.3-6.2c0.7-0.6,1.2-1.2,2-1.2c0.8-0.2,1.8,0.4,2.5,1c1.2,0.8,2.1,2,3,3.2
				c0.5,0.8,1.2,1.8,1.2,2.8c0,0.8-0.2,1.6-0.5,2.4c-1.3,4-3.1,8-5.3,11.5c-1.3,2.2-2.8,4.4-4.9,5.6c-1.3,0.8-3,1-4.1,0
				c-1.2-1-1.3-3-1.2-4.8C1288.3,690.8,1289.1,685.9,1291.2,681.5z"/>
			<path class="st8" d="M1021.1,1079.3l-9.2,37.8l33.9,9.3c0,0,9.9-28.4,8.1-33.6C1052,1087.7,1021.1,1079.3,1021.1,1079.3z"/>
			<g>
				<path class="st12" d="M1055.2,1141.9c0,0,3.1,9.7,1,12.9c-2.1,3.4-62.3,2.4-90.1-26.6c0,0,0.5-6.4,2.3-8.5
					c2-2.2,86.1,22.1,86.1,22.1L1055.2,1141.9z"/>
				<path class="st7" d="M1049.1,1115.7c0,0-0.8,5-5.4,6.2s-18.7-0.8-29.3-14.9c0,0-51.8,7.6-45.5,14.3c6.4,6.6,69.9,42.7,86.1,20.7
					C1055.2,1141.9,1057.6,1123.3,1049.1,1115.7z"/>
			</g>
			<path class="st8" d="M1232.9,873.1c0,0-16.4,5.4-17.1,6.6c-0.7,1.2-14.8,13.9-13.6,16.7c1.2,2.8,3.8,3.4,5.1,2.8
				c1.3-0.6,11.2-10.1,20.1-10.1c9,0.2,9.5-13.5,9.5-13.5L1232.9,873.1z"/>
			<path class="st8" d="M1228.8,886.9c0,0-9.2,13.7-7.1,15.5s5.1,7.4,7.7,5.6c0,0-1.2,1.2,0,2.8c1.2,1.6,8.4,4.2,8.4,4.2l22.5-18.1
				l-3-8.7l-14.8-3.4L1228.8,886.9z"/>
			<path class="st7" d="M1235.8,912.1c0,0,5.3-11.1,6.4-11.3C1243.2,900.6,1235.8,912.1,1235.8,912.1z"/>
			<path class="st9" d="M1121.4,1073.6c0,0,55.6,13.7,55.9,15.7c0.3,2.2-5.4,20.1-7.9,20.5c-2.5,0.4-51.3-11.9-51.3-14.7
				C1118,1092.2,1121.4,1073.6,1121.4,1073.6z"/>
			<path class="st9" d="M1017.5,1057.8c0,0-6.6,0-7.1,2.6c-0.5,2.6-3,10.5-2.3,13.1c0.5,2.6,50.5,29,52.3,27.2
				c1.8-1.8,4.8-18.3,4.8-18.3L1017.5,1057.8z"/>
			<polygon class="st17" points="1298.3,1115.9 1301.4,862.4 1328.9,862.4 1330.7,1107.7 			"/>
			<path class="st6" d="M1221.2,977.7c0,0,74.1,16.1,88.3,3.2c14.1-12.9,8.4-42.1,8.4-42.1l-33.9,10.1L1221.2,977.7z"/>
			<polygon class="st5" points="1299.8,862.4 1435.6,841.5 1436.2,1112.1 1281.5,1133 1296.7,1115.9 			"/>
			<path class="st5" d="M1206.9,966.6c0,0-2.8-35.8,40.3-66.6c43.1-30.8,62.5-13.7,62.5-13.7l-4.3,87.9
				C1305.4,974.1,1217.9,993.6,1206.9,966.6z"/>
			<path class="st7" d="M990.9,756.2l9.7-6C1000.6,750.3,992.4,756.6,990.9,756.2z"/>
			<path class="st7" d="M1070.8,857.6c0,0,10.4-69,12.5-70C1085.4,786.7,1070.8,857.6,1070.8,857.6z"/>
			<path class="st7" d="M951.3,849.9c0,0,5.1-1.2,9.4,0"/>
			<path class="st7" d="M945.3,846.7c0,0,9-2.4,10.2-1.4"/>
			<g>
				<polygon class="st12" points="1192.3,901.4 1223.2,898.4 1224.2,903.2 1194.9,906.9 				"/>
				<path class="st12" d="M1198.2,905l-36-106.8c-0.7-2.2-2.5-3.6-4.4-3.6l-107.5,3.6c-3.3,0.2-5.4,4.2-4.1,7.8l31.7,92.4
					L1198.2,905z"/>
				<polygon class="st12" points="1194.9,906.9 1077.9,898.4 1082.1,892 1196.7,900.8 				"/>
			</g>
			<path class="st7" d="M1229.6,907.9c0,0,4.6-11.9,6.1-12.1C1237,895.8,1229.6,907.9,1229.6,907.9z"/>
			<path class="st7" d="M1222.7,897.4c0,0,6.4-12.3,7.4-12.5"/>
			<path class="st7" d="M1213.3,839.9c0,0,14.8-36.8,16.3-36.2C1230.9,804.6,1213.3,839.9,1213.3,839.9z"/>
			<path class="st7" d="M1327.9,837.8c0,0-1.6-31-3.5-33.8c-1.8-2.8,3.5,35,3.5,35"/>
			<path class="st7" d="M993.5,954.1c0,0-3.6,35.8-1.6,38.8"/>
			<path class="st7" d="M1384.8,778.1c0,0,11.3,40.8,5.8,48.3C1390.5,826.4,1399.6,815.3,1384.8,778.1z"/>
			<path class="st7" d="M1403.2,791.4c0,0,6.2-7.6,11.5-9.1"/>
			<path class="st7" d="M1301.4,862.4c0,0,118.2-21.7,123.1-19.1"/>
			<path class="st7" d="M1206.9,966.6c0,0,53.4-36,59-41.8C1271.4,919.3,1224.3,965.8,1206.9,966.6z"/>
			<polygon class="st7" points="1299.5,882.3 1298.3,975.3 1301.4,882.3 			"/>
			<path class="st7" d="M1307.9,865c0,0,15.1,3.8,14.1,11.9c-1,8.2-4.6,125.7-4.6,125.7s3.1-125.7,1.6-127.6
				C1317.7,873.1,1307.9,865,1307.9,865z"/>
			<path class="st7" d="M1010.1,792.2c0,0,4.6-10.3,6.7-10.1"/>
			<path class="st6" d="M1265.9,925c0,0-26.3,39.8-49,38.4L1265.9,925z"/>
		</g>
		<g id="Character_2">
			<path class="st18" d="M619.5,1027.4c0,0,2.1-1.8,3.6-1c1.6,0.8,0.3,2.4,0.3,2.4l-2.5,1.8L619.5,1027.4z"/>
			<path class="st8" d="M575.5,559.4c2.1,3.8,8.1,11.7-4.1,28c-12.2,16.3-39.1-22.1-39.1-22.1l1-6.8c0,0,11.7-4.4,13.5-28.2
				c2-23.9,1.5-28.2,1.5-28.2l18.7-3.4l9.4,34.2l0.2,0.8l3.6,12.3C580.1,546.1,573.3,555.6,575.5,559.4z"/>
			<path class="st19" d="M575.5,559.4c-6.1-0.2-15-33.6-15.1-34.2l13.5,4l2.3,3.8l0.2,0.8l3.6,12.3
				C580.1,546.1,573.3,555.6,575.5,559.4z"/>
			<path class="st8" d="M562,529.8c0,0,14,30.2,28.4,17.5c14.5-12.7,9.2-60.4,2.1-66.4c-7.1-6-27.9-13.5-31.7-8.2
				C557,478.3,557.5,524.6,562,529.8z"/>
			<path class="st19" d="M575.5,559.4l-7.1,25.4l4.3,6.6l4.1-7.6C576.6,583.9,577.4,560.2,575.5,559.4z"/>
			<path class="st20" d="M593,481.3c0,0,15.9-10.3-6.4-25.8c0,0,1.8,1.8,1.6,4.2c-0.2,2.4-12.2-6.8-15.8-6.8c0,0,1.8,1.6,2.8,4
				c1,2.4-28.3,1.4-33.9,11.7c-5.6,10.3-8.9,32.6-3.9,39.4c4.9,6.8,11.3,16.3,8.7,24.3c0,0,6.7-14.1,3.8-18.9c-3-4.8,11-14.3,14-9.9
				c3,4.6,5.1,6.6,8.2-3c3.1-9.5,9.4-9.3,6.1-12.5C574.8,484.9,573.6,476.5,593,481.3z"/>
			<path class="st19" d="M553.1,506.1c0,0-5.9,14.3,9,12.7l-5.1-10.9L553.1,506.1z"/>
			<path class="st8" d="M561.1,504.3c0,0-4.3-5.4-5.9-3.4c-1.6,2-8.1,15.1,6.7,17.9L561.1,504.3z"/>
			<path class="st8" d="M622.6,1013.3c0,0-1,19.9,0,22.1s7.9,6.4,7.9,6.4l10.4,1.8c0,0-2.5-33.6-2.1-35.4c0.3-1.8-13.3,0-13.3,0
				L622.6,1013.3z"/>
			<polygon class="st8" points="578.2,1015.9 580.2,1037.2 563.1,1037.2 565.4,1014.3 			"/>
			<path class="st21" d="M521.4,770.6c0,0,20.1,101.8,18.2,119.9c-1.6,18.1,12,129.4,19.4,131.6c7.4,2,19.7-1.4,20.4-4.6
				s0-88.7-4.6-95.6c-4.6-7,12.3-115.9,4.8-142.2C572.3,753.3,521.4,770.6,521.4,770.6z"/>
			<path class="st21" d="M572.3,813.7c0,0,27.9,90.5,31.2,96c3.5,5.6,13.8,103,17.1,104.8c3.5,1.8,15.6,3.2,20.2-5.2
				c4.6-8.4-1.5-130.2-4.9-135.2c-3.5-5.2-0.2-85.5-16.8-123.5s-48.7,26.6-48.7,26.6L572.3,813.7z"/>
			<path class="st12" d="M666.9,676.1c-1.3,0.4-22.5,11.3-39.5,12.7c-7.1,0.6-13.5-0.4-17.3-4.8c0,0,2.8,62.8,9.7,64.6
				s-33.9,66.2-98.5,21.9c0,0-1.5-57.9-7.6-86.1c-1.3-6.4-3-11.1-4.8-13.5l0,0c0,0-3.9,7.2-3.1,10.5c1,3.4-22.7,12.7-12.7,30.6
				c0,0-46.5,8.5,3.1-123.1c0,0,11.8-29.4,36.7-30.4c0,0,15,14.9,25.3,14.9c10.4,0,13,13.9,13,13.9s7.2-23.1,4.1-28
				c0,0,18.9,14.1,26.6,15.7c7.7,1.8,24.5,74,29.4,79.5c0.8,1,2.5,1.8,4.6,2.4c10,3.2,30.9,3.2,30.9,3.2S668.7,675.5,666.9,676.1z"
				/>
			<path class="st22" d="M519.9,640.5c0,0-1,40.6-6.1,43.9c-1.3-6.4-3-11.1-4.8-13.5L519.9,640.5z"/>
			<g>
				<path class="st14" d="M572.5,717.5c-6.1-0.4-12.8-13.5-14.3-21.9c-1-5.4,0.5-7.4,1.6-8.2l0.8,2c-1,0.6-1.3,2.8-0.8,5.8
					c1.5,8.4,7.9,19.9,12.7,20.1V717.5z"/>
			</g>
			<path class="st8" d="M503.6,681.7c0,0-30.1,16.1-10.4,30.4c0,0,43.6,5.4,49.3,2.8c0,0,21.5,9.7,23-3c0,0-0.5-5.8-3.5-5.8
				c0,0,8.1-4.8,1.6-9.7c0,0,1.3-5.4-1-7c0,0,8.7-3,4.8-7.8c0,0-13.3-0.6-15.9,1.2c-2.8,2-9.9,7.2-12.2,10.1
				C537.1,696,515.4,688.8,503.6,681.7z"/>
			<g>
				<path class="st14" d="M561.6,689.8h-1.8c0-0.2,0.3-3.2,2.6-4.8c2-1.2,4.6-0.8,7.7,1.4l-0.8,2c-2.6-1.8-4.8-2.2-6.1-1.4
					C562,687.9,561.6,689.8,561.6,689.8z"/>
			</g>
			<path class="st14" d="M569,680.3c0,0-1.8,37.6,2.8,42.7c4.6,5.2,19.7,3,19.7,3s13-36.8,10-41.8C598.6,679.3,569,680.3,569,680.3z
				"/>
			<path class="st9" d="M686.6,658.6h3.3c0,0,7.7-12.1,9.4-12.9c1.8-0.8,3.8-0.4,4.1,0c0.3,0.4-9.2,18.3-9.9,18.5
				c-0.7,0.2-7.2,2.6-7.2,2.6l-2.3-1.2L686.6,658.6z"/>
			<path class="st8" d="M665.4,663.4c0,0,4.4-9.5,8.4-11.3c3.9-1.8,13.2-7.4,15.6-7.6c2.5-0.2-1.2,7.8-5.6,8.4
				C679.4,653.5,665.4,663.4,665.4,663.4z"/>
			<g>
				<g>
					<polygon class="st7" points="711.1,634.6 714.7,631.8 715.7,634.2 711.6,636.4 					"/>
					<line class="st17" x1="714.4" y1="633.4" x2="717.7" y2="631"/>
				</g>
				<path class="st12" d="M685.9,656.6c0,0,25.2-15.1,27.1-20.1l-1.8-3.2L679.8,655L685.9,656.6z"/>
			</g>
			<path class="st23" d="M666.9,677.1c0,0,0.7-0.8,0.7-1.4c0-0.8-1.5,0-1.5,0l-0.7,1.6L666.9,677.1z"/>
			<path class="st8" d="M689.2,646.5c0,0,0.2-3.4,1.6-3.4c1.5,0,3.3,4.6,3.5,5.8c0.3,1.2,1.6,8.4,1.3,9.7c-0.3,1.4-3.5,8.9-3.6,10.1
				c-0.2,1.2-2.3,4.2-3.5,3.6c0,0-2,3-4.9,1.4c0,0-6.7,1.8-7.6,0.6c-0.8-1.2-11.8,3.2-11.8,3.2L665,663c0,0,15.8-9.7,17.1-9.5
				c1.5,0.2,3.5,2,3.9,3.2c0.3,1.2,2,7.8,2,7.8S691.7,655.2,689.2,646.5z"/>
			<path class="st7" d="M559.5,1038.2c0,0-1.5-15.9,1-16.1c1.5-0.2,4.8,0.4,7.2,0.6c1.6,0.2,2.8,1.8,2.8,3.8c0,4.2,0.2,10.9,0,11.5
				C570.2,1039.2,559.5,1038.2,559.5,1038.2z"/>
			<path class="st7" d="M632.8,1032.6c0,0-0.5-6.6,1-7.2c1.5-0.6,11.2,1.8,11.2,1.8s-0.5,14.9-1,15.7c-0.5,0.8-5.6,0.8-7.7,1
				C634.1,1044.1,632.8,1032.6,632.8,1032.6z"/>
			<path class="st8" d="M666.9,676.1c-1.3,0.4-22.5,11.3-39.5,12.7c-15.1-10.3,8.5-31.8,8.5-31.8c10,3.2,30.9,3.2,30.9,3.2
				S668.7,675.5,666.9,676.1z"/>
			<path class="st7" d="M563,689.6c0,0-4.9,0.2-5.4,0C557.4,689.4,561.5,690.4,563,689.6z"/>
			<path class="st7" d="M563.9,696.4c0,0-5.6,0-6.2-0.2C557,696,561.6,697.8,563.9,696.4z"/>
			<path class="st7" d="M562.1,706.1c0,0-4.3,1.6-4.3,2C558,708.5,562.1,706.1,562.1,706.1z"/>
			<path class="st7" d="M610.1,682.7c0,0-4.3-32-3.5-34.4S609.8,681.5,610.1,682.7z"/>
			<path class="st7" d="M509,671c0,0,11.2-26,10.9-30.4C519.6,636.2,509,671,509,671z"/>
			<path class="st7" d="M580.1,838.8c0,0,4.3-18.3,3.9-20.1C583.8,816.7,579.6,837.2,580.1,838.8z"/>
			<path class="st12" d="M665.5,660.2c0,0-4.9,9.9,1.3,16.7c0,0-1.6,1.2-2.8,1.8c-0.7,0.2-1.3,0-1.6-0.8c-1.2-2.8-4.4-11.7-0.7-17.9
				L665.5,660.2z"/>
			<g>
				<path class="st12" d="M541.3,1064.4c0,0-5.4,6.8-3.6,9.9c1.8,3.2,25.8-0.4,31.2-4.2c5.6-3.8,18.6-4.2,19.1-5.8
					c0.5-1.6,2.1-7.8,0-9.9C585.8,1052.3,541.3,1064.4,541.3,1064.4z"/>
				<path class="st12" d="M617.2,1053.1c0,0-0.5,6.2,0.7,7c1,1,7.7,4.4,9.2,4.4c1.5,0,5.1,11.1,12.8,11.3c7.9,0.2,14.5-1.6,15-2.4
					c0.5-1,0.3-5.6,0.3-5.6l-30.4-14.9L617.2,1053.1L617.2,1053.1z"/>
				<path class="st7" d="M570.7,1030.2c0,0,5.6,2.8,7.7,2c2.1-0.6,7.2,1.6,7.4,3.4c0.2,1.8,2.1,18.7,2.1,18.7s-26.5,22.1-47.2,13.9
					c0,0-3.1-3.2,7.4-10.9c10.5-7.6,11.2-25.1,11.2-25.1L570.7,1030.2z"/>
				<path class="st7" d="M646.1,1036.2c0,0,10.5,31,9,31.8c-1.3,0.6-11,7-16.1,2.4c-5.1-4.6-10.9-11.9-13.5-12.3
					c-2.6-0.2-8.7-3-8.4-6c0.3-3-0.8-21.7,1.5-24.1c2.3-2.4,11.5,6.6,13.3,6c2-0.6,12.3-2.8,12.3-2.8L646.1,1036.2z"/>
			</g>
		</g>
		<g id="Character_1">
			<path class="st9" d="M302.9,712.5c0,0,18.7,44.3,18.9,56.7c0.2,12.3,14.5,34.2,14.5,34.2l-10,6.4c0,0-15-7-21.2-20.1
				c-6.2-13.1-12.8-59.4-12.8-59.4L302.9,712.5z"/>
			<path class="st11" d="M273.4,699.6c0,0,25.3,6.2,28.6,11.1c3.1,5,10.2,32.2,5.9,53.3c-4.3,21.1,14,46.9,14,46.9l-36.2,48.9
				l-14.3,6.2l-6.9,18.9l-11.8,1.2c0,0-32.7-30-32.6-101c0.2-71.2-35-61.4-35-61.4s17.6-23.5,31.7-28.6c14.1-5.2,48.7,2.2,48.7,2.2
				L273.4,699.6z"/>
			<path class="st9" d="M269,710.5c0,0,1.5,8.7,2.1,7.4s1.3-31.6-9-34c-10.4-2.4-7.2,16.1-7.2,16.1L269,710.5z"/>
			<path class="st8" d="M271.1,717.9l-6.2,5.6l-10-8.5l-3.1-8.7l-31.1-18.9c0,0,1.3-7.8-0.3-10.1c-0.7-1-0.2-3.6,0.5-6.4
				c0.5-1.8,1-3.6,1.5-5c0.8-2.4,1.5-4.2,1.5-4.2l11.2-3.8l20.5,5.2l7.4,4.8l0.7,2.4l2.5,9.5c0,0-2.6,3.2-4.1,7.2c0,0,0,0.2-0.2,0.4
				c-0.7,1.6-1,3.2-1,5c-0.2,6-1.3,8.2,1.2,9.5c2.5,1.4,5.9,2.4,7.4,4c0.8,1,1.3,5,1.5,8.2C271,716.1,271.1,717.9,271.1,717.9z"/>
			<path class="st19" d="M271.3,715.7c0,0.6,0,1.4-0.2,2C271.1,717.3,271.3,716.7,271.3,715.7z"/>
			<path class="st19" d="M266.1,679.7c0,0-2.8,3.4-4.3,7.6c-5.8,2.2-24.8-13.9-25.6-12.9c-0.7,0.8-13.3-2-13.3-2l-2-1.4
				c0.5-1.8,1-3.6,1.5-5h21l20.2,4.2L266.1,679.7z"/>
			<path class="st8" d="M238.6,672.1c0,0,21.4,19.5,39.6,1.8c18.2-17.7-23.7-65-28.3-65.4c-4.6-0.4-36.3,17.7-36.3,29.2
				S238.6,672.1,238.6,672.1z"/>
			<path class="st20" d="M227.6,651.9c0,0,5.4,3.2,7.9,2.8c2.3-0.4,6.7-6,3-12.5c-3.8-6.6,15.8-19.7,14.8-26
				c-1-6.4,4.9-10.9-0.7-14.1c-5.6-3.2-49.8-22.9-58.9,24.1c0,0-35.3,23.7,25.5,53.5c0,0,3.5,0.6,3.6-3.8c0.3-4.4,0-15.3,0-15.3
				L227.6,651.9z"/>
			<path class="st9" d="M220.7,682.7c0,0,37.8,22.9,39.6,25.2c2,2.4,5.3,13.5,4.6,15.1c-0.7,1.6-15-6.4-15-6.4s-32.6-14.7-32.9-20.5
				C216.9,690,220.7,682.7,220.7,682.7z"/>
			<path class="st8" d="M227.1,651.9c0,0-9,0.2-9,9.5c0,9.3,20.5,12.9,23.5,5.6C244.5,659.8,227.1,651.9,227.1,651.9z"/>
			<path class="st9" d="M185.2,723.4c0,0-16.6,24.3-13.3,34.2c3.1,9.7,9.2,104.4,17.6,107.8c8.4,3.4,42.4-2.2,42.4-2.2
				s21-27.8,17.6-29.6c-3.3-1.8-24.8-4.8-24.8-4.8l-1.2-73C223.5,755.8,214.4,715.3,185.2,723.4z"/>
			<path class="st9" d="M249.8,828.2c0,0-22.5,34.2-21.5,38.4c1,4.2,7.2,1.6,10.7-1.4c3.6-2.8,15.9-32.6,16.3-34.6
				C255.5,828.8,249.8,828.2,249.8,828.2z"/>
			<path class="st8" d="M253.4,833.4c0,0,25.2,2.2,33.9-2.6c8.5-4.8,20.4-21.7,22.7-22.7c2.3-0.8,18.4-6.2,21.9-4.8
				c3.3,1.6-7.2,16.7-7.2,16.7l-37,32.8c0,0-40.6,13.1-47,10.1C234.2,860.2,253.4,833.4,253.4,833.4z"/>
			<path class="st19" d="M320.8,813.9c0,0-51.8,32.8-48.7,41.8C275.3,864.6,320.8,813.9,320.8,813.9z"/>
			<path class="st7" d="M332.1,806.9c0,0-11.3,3.8-11.3,4.2C320.8,811.5,332.1,806.9,332.1,806.9z"/>
			<polygon class="st12" points="333.1,804.2 275.3,850.3 275.3,853.3 334.9,806.5 			"/>
			<polygon class="st12" points="275.3,853.3 288.9,860.2 352.7,808.5 334.9,806.5 			"/>
			<path class="st12" d="M333.1,804.2l17.3-94.2c0.3-1.4,1.3-2.4,2.6-2.4l69,4.6c1.5,0.2,2.6,1.8,2.3,3.6l-13.3,77.7l-53.8,24.5
				l-15.5,3.4l-11-6.4L333.1,804.2z"/>
			<path class="st22" d="M372.9,782.7l-74.8,60.4C298.1,843.1,366,810.3,372.9,782.7z"/>
			<path class="st8" d="M464.5,836.2c0,0,12.7,5.8,13.5,8c0.8,2.2,3,22.9,0,23.9s-13,0-13,0s-13.2-19.9-13.2-20.7
				C451.8,846.9,464.5,836.2,464.5,836.2z"/>
			<path class="st8" d="M429.3,1015.5c0,0-1.6,25.1-2.8,29.4c-1.2,4.4-1.6,8.4,2.8,10.9s12.5,5.6,21.7-1.8c9.2-7.2,10-5.2,10-5.2
				s-2.8-8.7-3.3-15.5c-0.5-6.8-0.2-22.3-0.2-22.3l-23-5.4L429.3,1015.5z"/>
			<path class="st21" d="M471.7,879.3c-1.3,26.4-7.9,123.7-6.7,131c1.2,7.4-35.7,5.2-35.7,5.2s-5.3-99.2,0-108.8
				c0,0-52.1,9.5-80.2,0.8c-3.9-1.2-7.2-2.8-10-4.8c-19.2-13.7,16.3-37,27.3-43.7c2-1.2,3.1-1.8,3.1-1.8l6.6,2.8c0,0,51-1.8,61.3-7
				C447.5,847.9,473,852.7,471.7,879.3z"/>
			<path class="st20" d="M426.3,856c0,0,20.9,15.9,33.2-1.4C471.9,837.4,426.3,856,426.3,856z"/>
			<path class="st20" d="M376,860.2c0,0-21.7,42.7-26.8,47.3l0,0c-3.9-1.2-7.2-2.8-10-4.8c-19.2-13.7,16.3-37,27.3-43.7L376,860.2z"
				/>
			<path class="st21" d="M332.5,913.9c0,0,46.7-53.3,52.8-73.8c0,0,59.8,28,71.7,17.3c11.8-10.9,7.9-25.6,4.9-25.8
				c-3-0.2-20.4,4.2-43.6-28.4c-23-32.6-36.8-26.2-42.7-22.7c-5.9,3.4-66.1,64-84.8,63.2c-18.7-1-34.5,41.8-34.5,41.8
				S252.1,945.1,332.5,913.9z"/>
			<path class="st12" d="M474.3,841.9c0,0-0.3,6.2-0.3,7.6s-2.8,10.5-2.3,11.5c0.5,0.8,3.8,4.8,5.1,3c1.3-1.8,6.4-15.7,3-18.5
				C476.5,842.9,474.3,841.9,474.3,841.9z"/>
			<path class="st12" d="M472.5,877.5c0,0,46,21.7,62.1-6c16.1-27.6-59.8-37.4-57-29.8c1.8,4.8,0,27.4-7.7,24.7L472.5,877.5z"/>
			<path class="st12" d="M425.7,1045.9c0,0-3.6-0.2-3.8,2c-0.2,2.2-4.4,27.4-3.5,29.8c0.8,2.4,82.5,4.4,99-6.8
				c16.4-11.3-63.8-28.6-63.8-28.6L425.7,1045.9z"/>
			<path class="st12" d="M458.1,1037c0,0-7.7,8.4,4.4,12.9c0,0,3.1-4,1.3-6.6C461.9,1040.7,458.1,1037,458.1,1037z"/>
			<path class="st5" d="M183,846.3c0,0,7.2,99.8,13.5,101c6.4,1.2,69.2,2,70.4-3.8c1-5.8-2.1-50.9-8.4-57.5
				c-6.2-6.6-41.8-28-47.8-28.8C204.6,856.6,183,846.3,183,846.3z"/>
			<path class="st24" d="M318.5,959h-39.9c-2.6,0-4.8-2.6-4.8-5.8v-11.1h49.5v11.1C323.3,956.4,321.1,959,318.5,959z"/>
			<path class="st5" d="M263.7,920.5c0,0,20.5-12.3,30.2-12.1c9.7,0.2,45.2-4.2,55.6-3c10.2,1.2,56.6,1.6,57.2,3s1.6,6-1,7.8
				s-95.5,47.9-142,26.2C263.7,942.1,260,925.8,263.7,920.5z"/>
			<g>
				<path class="st24" d="M298.8,1041.1h-3.6c-1.6,0-3-1.6-3-3.6V959h9.5v78.5C301.7,1039.6,300.4,1041.1,298.8,1041.1z"/>
				<path class="st24" d="M299.4,1035.2l46.7,29.4l1,6.6c0,0,5.8,3.8,6.9-1.2c1-5.2,0-14.1,0-14.1l-53.8-34L299.4,1035.2z"/>
				<path class="st24" d="M300.4,1015.7l92.7,12.7l1,13.9c0,0-7.2,3.4-8.1,0s-0.5-5.4-0.5-5.4l-76.1-1.8l-13.5-5.4L300.4,1015.7z"/>
				<path class="st24" d="M293,1019.7l-71.5,46.9v15.7c0,0,7.1,3.6,7.9,0c0.8-3.6,0.5-9.7,0.5-9.7l64.8-36.8L293,1019.7z"/>
				<path class="st24" d="M292.2,1015.7l-90.1,25.8v15.1c0,0,7.2,1.2,7.6-1c0.3-2.2,0.2-6.4,0.2-6.4l53.8-8.2l33.4-20.9
					L292.2,1015.7z"/>
				<ellipse class="st7" cx="353.2" cy="1083.7" rx="6.9" ry="8.4"/>
				<ellipse class="st7" cx="392.8" cy="1054.1" rx="6.9" ry="8.4"/>
				<ellipse class="st7" cx="228.4" cy="1095.4" rx="6.9" ry="8.4"/>
				<ellipse class="st7" cx="205.9" cy="1066.8" rx="6.9" ry="8.4"/>
			</g>
			<path class="st7" d="M333.1,804.2c0,0,10.5,1,11.2,0.6"/>
			<path class="st7" d="M385.2,840.3c0,0-5.1-2-5.1-3.4S384.4,839.9,385.2,840.3z"/>
			<path class="st7" d="M429.3,906.7c0,0,3.8-6.6,5.6-6.6S431.3,904.4,429.3,906.7z"/>
			<path class="st7" d="M331.3,803.4c0,0-12,3.2-12,3.4S331.3,803.4,331.3,803.4z"/>
			<path class="st7" d="M265.9,919.1c0,0,2.5,23.1,1,24.3"/>
			<path class="st7" d="M228.9,863.6l9.4-17.3C238.4,846.3,229.9,863.4,228.9,863.6z"/>
		</g>
	</g>
	<g id="Element_2">
		<g>
			<g>
				<g>
					<path class="st2" d="M800.8,1102c0,0-29.4-19.1,3.5-41.4c0,0-2.8,22.9,0,24.9c2.8,2,3.6-26.6,3.5-27.2
						c0-0.6,24.3-11.7,26.5-10.7c2.1,1-11.8,25.8-7.9,23.7c3.9-2.4,13-26.2,13-26.2s19.1-3,23,4.4c3.9,7.4,7.1,21.7,0,27.8
						c-7.1,6.2-23.5,0.2-22,4c1.5,4,17.4,6.8,20.1,5c0,0-10,27.2-22.7,20.7c-11.8-6.2-20.1-6.6-20.5-5.4c-0.5,1.2,21,5.2,22.2,14.3
						c1.2,9.1-36,4-35.7-4.4C804,1103,800.8,1102,800.8,1102z"/>
					<g>
						<path class="st2" d="M800.7,1160.6c-2.3-3.8-9.9-17.5-7.1-35.2c2-11.9,7.6-19.9,10.9-23.7l2,2.4c-3,3.4-8.2,10.7-10,21.7
							c-2.6,16.3,4.4,29,6.6,32.6L800.7,1160.6z"/>
					</g>
				</g>
				<g>
					<path class="st2" d="M782.8,1100.2c0,0,21.4-13.9-2.5-29.8c0,0,2,16.5,0,17.9c-2,1.4-2.6-19.3-2.6-19.7
						c0-0.4-17.6-8.5-19.2-7.8c-1.6,0.8,8.7,15.5,5.8,17.1c-3,1.6-12.3-18.1-12.3-18.1s-10.9-3.2-13.6,2.2s-5.1,15.7,0,20.1
						c5.1,4.4,16.9,0,15.9,3c-1,2.8-12.7,4.8-14.5,3.6c0,0,7.9,21.3,16.4,14.9c8.5-6.4,16.8-5.8,16.8-4.8c0,1-17.1,4.6-17.9,11.3
						c-0.8,6.8,26.1,2.8,25.8-3.2C780.5,1101,782.8,1100.2,782.8,1100.2z"/>
					<g>
						<path class="st2" d="M782.9,1142.5c1.6-2.8,7.2-12.7,5.1-25.4c-1.3-8.7-5.6-14.5-7.9-17.1l-1.3,1.8c2.1,2.4,6.1,7.8,7.2,15.7
							c1.8,11.9-3.1,21.1-4.8,23.5L782.9,1142.5z"/>
					</g>
				</g>
				<g>
					<path class="st3" d="M798.7,1060.2c0,0-39.6-25.8,4.6-55.5c0,0-3.6,30.6,0,33.2c3.6,2.8,4.8-35.8,4.8-36.6s32.6-15.9,35.5-14.5
						s-16.1,28.8-10.7,31.6c5.4,2.8,23-33.6,23-33.6s20.1-5.8,25.3,4.2s9.5,29,0,37.4s-31.4,0.2-29.6,5.4c1.8,5.2,23.5,8.9,26.8,6.6
						c0,0-14.8,39.4-30.6,27.6c-15.8-11.7-32.2-9.7-30.9-8.9c1.3,1,34.5,10.1,36.2,22.5c1.6,12.3-51.1,3.8-50.6-7.4
						C803,1061.4,798.7,1060.2,798.7,1060.2z"/>
					<g>
						<path class="st3" d="M798.4,1138.8c-3.1-5.2-13.3-23.5-9.5-47.3c2.5-16.1,10.2-26.8,14.6-31.6l2.6,3.4
							c-3.9,4.6-11.2,14.5-13.5,29.2c-3.5,21.9,5.9,39,8.9,43.7L798.4,1138.8z"/>
					</g>
				</g>
			</g>
			<path class="st4" d="M793.9,1177.5c26.1,0,47.2-25.6,47.2-57.1h-94.5C746.6,1151.9,767.8,1177.5,793.9,1177.5z"/>
			<path class="st3" d="M834.1,1182.9h-80.6c-1.2,0-2-1-2-2.4v-0.6c0-1.4,0.8-2.4,2-2.4h80.6c1.2,0,2,1,2,2.4v0.6
				C836,1181.7,835.2,1182.9,834.1,1182.9z"/>
		</g>
		<g id="Lamp">
			<path class="st25" d="M951.4,315.9h-21.4c-3.1,0-5.6-3-5.6-6.8v-35.4c0-3.8,2.5-6.8,5.6-6.8h21.4c3.1,0,5.6,3,5.6,6.8v35.4
				C957,312.9,954.6,315.9,951.4,315.9z"/>
			<path class="st0" d="M940.7,64.8c-41.1,0-74.5,40.4-74.5,90.1c0,16.9,3.8,32.6,10.5,45.9c0.3,0.8,0.5,1.6,1,2.4l33.2,69.6
				c0.7,1.4,1.3,3,2,4.2c0,0.2,0.2,0.2,0.2,0.2c5.9,10.7,16.1,17.7,27.6,17.7c11.5,0,21.5-7,27.6-17.7c0-0.2,0.2-0.2,0.2-0.2
				c0.8-1.4,1.5-2.8,2-4.2l33.2-69.6c0.3-0.8,0.7-1.6,1-2.4c6.6-13.5,10.5-29.2,10.5-45.9C1015.1,105.1,981.8,64.8,940.7,64.8z"/>
			<path class="st26" d="M984.3,140.3c-1.6-0.6-3.5,0.4-3.9,2.4l-39.8,136.2l-39.8-136.2c-0.5-2-2.3-3-3.9-2.4s-2.5,2.8-2,4.8
				l42.6,146.3c0,0,0,0,0,0.2c0.2,0.4,0.2,0.6,0.3,1l0,0c0.2,0.2,0.3,0.4,0.5,0.6c0,0,0.2,0,0.2,0.2c0.2,0.2,0.5,0.4,0.7,0.4l0,0
				c0.3,0.2,0.7,0.2,1,0.2c0.3,0,0.7,0,1-0.2l0,0c0.2-0.2,0.5-0.2,0.7-0.4c0,0,0.2,0,0.2-0.2c0.2-0.2,0.3-0.4,0.5-0.6l0,0
				c0.2-0.2,0.3-0.6,0.3-1c0,0,0,0,0-0.2l42.6-146.3C986.8,143.1,986,140.9,984.3,140.3z"/>
			<g>
				<path class="st26" d="M962.6,149.1c-0.5,0-1.2-0.2-1.5-0.4c-0.8-0.6-1.5-1.6-1.8-3c-0.7-2.6-0.2-5.8,0.8-8
					c0.7-1.4,1.6-2.4,2.8-3.2c-2.3-1.8-5.3-2.6-7.6-2.4c-0.7,0-1.2,0.2-1.8,0.4c1.2,1,2,2.4,2.5,4.2c0.5,2.4,0.2,5.2-1,7.6
					c-0.8,1.6-1.8,2.6-3,2.8c-1.3,0.2-2.8-0.4-4.1-2c-1.8-2-2.8-4.8-2.6-7.2c0.2-2.4,1.5-4.2,3.1-5.4c-2.1-0.6-4.4-1-6.7-1.2
					c-2,0-4.3,0.2-6.4,0.8c2.1,2.4,3.3,4.8,3.3,7c0,1.8-1,3.6-2.3,5c-1.3,1.2-2.8,1.8-4.1,1.6s-2.5-1.4-3.3-3c-1.2-2.2-1.5-4.8-1-7
					c0.5-2,1.6-3.4,3.3-4.4c-3.5-2.4-8.5-4.4-12.5-2c0,0-0.2,0-0.2,0.2c0.5,0.4,1,1,1.5,1.6c2,3,3.3,8.7,0.3,11.9
					c-1.3,1.4-3.3,2.2-5.1,2c-1.5-0.2-2.6-0.8-3.3-1.8c-0.8-1.2-1-3.2-0.7-5.4c0.5-2.4,1.6-5.2,3.3-7.6c-0.5-0.2-1.2-0.2-1.6-0.2
					c-4.8-0.2-9.9,5.2-13,13.5l-1.8-1c3.6-9.3,9.2-15.1,15-14.9c1.3,0,2.5,0.2,3.5,0.8c0.5-0.4,0.8-0.8,1.3-1
					c4.9-3,11.2-0.6,15.1,2.4c0.2,0.2,0.3,0.2,0.5,0.4c2.8-1.2,6.2-1.4,8.4-1.4c2.3,0,6.2,0.4,9.4,2c1.5-0.6,3-1,4.3-1.2
					c3.3-0.4,7.2,0.8,10,3.8c3.3-1.2,7.4-0.8,10.7,0.8c4.6,2.4,6.9,7,7.9,9.5l-1.8,1c-0.8-2.2-3-6.4-6.9-8.4c-2.5-1.2-5.6-1.6-8.2-1
					c0.3,0.6,0.7,1.2,1,1.8c1.2,2.8,1.2,5.4,0.3,7.6c-0.8,1.8-2.3,3.4-3.9,4C963.6,148.9,963.1,149.1,962.6,149.1z M964.6,136.1
					c-1.2,0.6-2.1,1.6-2.8,2.8c-0.8,1.6-1.2,4.2-0.7,6c0.2,0.8,0.5,1.4,0.8,1.6c0.3,0.2,0.8,0.2,1.5,0c1.2-0.4,2.1-1.6,2.6-2.8
					c0.7-1.4,0.5-3.2-0.3-5.4C965.6,137.5,965.1,136.7,964.6,136.1z M950.8,133.4c-2,1-3.5,2.6-3.6,4.4c-0.2,1.6,0.7,3.8,2,5.2
					c0.8,1,1.8,1.4,2.5,1.2c0.5-0.2,1.2-0.8,1.6-1.6c0.8-1.6,1.2-3.8,0.8-5.4C953.6,135.5,952.4,134.4,950.8,133.4z M932.7,132.8
					c-1.6,0.8-2.8,2-3.3,3.6c-0.3,1.4,0,3.4,0.8,4.8c0.5,1,1.3,1.8,2,1.8c0.7,0.2,1.6-0.2,2.5-1c1-0.8,1.5-2,1.5-3.2
					C936.3,137.1,935,134.8,932.7,132.8z M916.3,131c-1.8,2-3,4.8-3.5,7.2c-0.3,1.4-0.2,2.8,0.2,3.4c0.3,0.4,1,0.8,1.8,1
					c1.3,0.2,2.6-0.4,3.6-1.4c1.8-2,1-6.4-0.5-8.5C917.4,131.8,916.9,131.4,916.3,131z"/>
			</g>
		</g>
		<g id="Gear_1_">
			<path class="st0" d="M699.4,232l-9.4,4.8c-2.6-6-6.6-10.9-11-14.3l3.6-10.7c0.3-0.8,0-1.6-0.7-2l-6.6-3.4c-0.7-0.4-1.3,0-1.6,0.8
				l-3.5,10.3c-5.4-1.8-11.2-2-16.8-0.2l-3.5-9.9c-0.3-0.8-1-1-1.6-0.8l-6.6,3.4c-0.7,0.4-0.8,1.2-0.7,2l3.5,9.9
				c-4.9,3.6-8.9,8.7-11.7,14.5l-8.5-4.2c-0.7-0.4-1.3,0-1.6,0.8l-2.8,8c-0.3,0.8,0,1.6,0.7,2l8.9,4.4c-1.2,6.4-1,13.1,0.7,19.7
				l-9.4,4.8c-0.7,0.4-0.8,1.2-0.7,2l2.8,8c0.3,0.8,1,1,1.6,0.8l9.7-5c3,5.4,6.9,9.7,11.3,12.7l-4.3,12.5c-0.3,0.8,0,1.6,0.7,2
				l6.6,3.4c0.7,0.4,1.3,0,1.6-0.8l4.4-12.7c4.8,1.2,9.9,1.2,15-0.4l4.4,13.1c0.3,0.8,1,1,1.6,0.8l6.6-3.4c0.7-0.4,0.8-1.2,0.7-2
				l-4.4-13.1c4.4-3.2,8.1-7.6,10.7-12.5l10.5,5.4c0.7,0.4,1.3,0,1.6-0.8l2.8-8c0.3-0.8,0-1.6-0.7-2l-10.4-5.2
				c1.3-6,1.6-12.3,0.5-18.7l9.7-5c0.7-0.4,0.8-1.2,0.7-2l-2.8-8C700.7,232.2,699.9,231.8,699.4,232z M665.9,268.8
				c-5.9,3-12.7-0.4-15.1-7.6c-2.5-7.2,0.3-15.3,6.2-18.3c5.9-3,12.7,0.4,15.1,7.6C674.6,257.6,671.8,265.8,665.9,268.8z"/>
			<path class="st0" d="M802,206.5l-18.7,2.2c-2.1-12.3-6.7-23.5-13.2-32.6l11.2-16.5c0.8-1.2,0.7-2.8-0.3-3.8l-10.2-10.1
				c-1-1-2.3-0.8-3.1,0.4L756.8,162c-8.7-6.8-18.7-10.9-29.6-11.5l-1.6-19.9c-0.2-1.4-1.2-2.6-2.5-2.4l-13.2,1.6
				c-1.2,0.2-2.1,1.4-2,3l1.6,19.9c-10.5,3.2-19.7,9.5-27.1,18.1l-13.2-13.1c-1-1-2.3-0.8-3.1,0.4l-8.4,12.3
				c-0.8,1.2-0.7,2.8,0.3,3.8l13.6,13.5c-4.9,10.5-7.7,22.5-7.7,35l-18.7,2.2c-1.2,0.2-2.1,1.4-2,3l1.3,15.9
				c0.2,1.4,1.2,2.6,2.5,2.4l19.4-2.2c2.8,11.5,7.7,21.7,14.3,29.8L667.7,293c-0.8,1.2-0.7,2.8,0.3,3.8l10.2,10.1
				c1,1,2.3,0.8,3.1-0.4l13.5-19.9c7.9,5.4,16.9,8.7,26.5,9.3l2.1,26c0.2,1.4,1.2,2.6,2.5,2.4l13.2-1.6c1.2-0.2,2.1-1.4,2-3l-2.1-26
				c9.2-2.8,17.6-8.2,24.5-15.3l16.4,16.3c1,1,2.3,0.8,3.1-0.4l8.4-12.3c0.8-1.2,0.7-2.8-0.3-3.8L775,262.4
				c5.1-9.7,8.4-20.9,9.4-32.6l19.4-2.2c1.2-0.2,2.1-1.4,2-3l-1.3-15.9C804.3,207.5,803.3,206.5,802,206.5z M726.4,249.7
				c-11.8,1.4-22.2-9.1-23.3-23.3c-1.2-14.3,7.6-26.8,19.2-28.2c11.8-1.4,22.2,9.1,23.3,23.3C746.8,235.6,738.2,248.3,726.4,249.7z"
				/>
		</g>
	</g>
</g>
</svg>
